<svg t="1666961198594" class="icon" viewBox="0 0 1024 1024" version="1.1" xmlns="http://www.w3.org/2000/svg" p-id="4054" width="200" height="200"><path d="M915.746268 0h-807.911811C48.273134 0 0 48.482772 0 107.834457v807.911811c0 59.561323 48.482772 107.834457 107.834457 107.834456h807.911811c59.561323 0 107.834457-48.482772 107.834456-107.834456v-807.911811c0-59.343622-48.482772-107.834457-107.834456-107.834457z m56.634456 915.746268c0 31.139276-25.495181 56.634457-56.634456 56.634456h-807.911811c-31.139276 0-56.634457-25.495181-56.634457-56.634456v-807.911811c0-31.139276 25.495181-56.634457 56.634457-56.634457h807.911811c31.139276 0 56.634457 25.495181 56.634456 56.634457v807.911811z m-267.288189-429.451087H537.293606V318.488189a25.688693 25.688693 0 0 0-25.704819-25.704819A25.688693 25.688693 0 0 0 485.875906 318.488189v167.806992H318.068913c-14.215055 0-25.704819 11.497827-25.704819 25.495181a25.688693 25.688693 0 0 0 25.704819 25.704819H485.875906v167.806992a25.688693 25.688693 0 0 0 25.704818 25.704819 25.688693 25.688693 0 0 0 25.704819-25.704819V537.495181H705.108661a25.688693 25.688693 0 0 0 25.704819-25.704819c0-14.206992-11.497827-25.495181-25.704819-25.495181z" fill="#20A0FF" p-id="4055"></path></svg>